<?xml version="1.0" encoding="UTF-8" standalone="no"?>
<svg
   xmlns:dc="http://purl.org/dc/elements/1.1/"
   xmlns:cc="http://creativecommons.org/ns#"
   xmlns:rdf="http://www.w3.org/1999/02/22-rdf-syntax-ns#"
   xmlns:svg="http://www.w3.org/2000/svg"
   xmlns="http://www.w3.org/2000/svg"
   xmlns:sodipodi="http://sodipodi.sourceforge.net/DTD/sodipodi-0.dtd"
   xmlns:inkscape="http://www.inkscape.org/namespaces/inkscape"
   width="1543.4"
   height="320"
   version="1.1"
   viewBox="0 0 1543.4 320"
   id="svg349"
   sodipodi:docname="thingsboard_with_title.svg"
   inkscape:version="1.0.1 (3bc2e813f5, 2020-09-07)">
  <metadata
     id="metadata355">
    <rdf:RDF>
      <cc:Work
         rdf:about="">
        <dc:format>image/svg+xml</dc:format>
        <dc:type
           rdf:resource="http://purl.org/dc/dcmitype/StillImage" />
      </cc:Work>
    </rdf:RDF>
  </metadata>
  <defs
     id="defs353">
    <radialGradient
       id="SVGID_1_"
       cx="238.1216"
       cy="246.2485"
       r="92.359596"
       gradientUnits="userSpaceOnUse">
      <stop
         offset="8.043184e-03"
         style="stop-color:#F3F7F9"
         id="stop20" />
      <stop
         offset="0.1184"
         style="stop-color:#D6DBE4"
         id="stop22" />
      <stop
         offset="0.3026"
         style="stop-color:#AEB9CC"
         id="stop24" />
      <stop
         offset="0.4687"
         style="stop-color:#94A3BB"
         id="stop26" />
      <stop
         offset="0.6093"
         style="stop-color:#8597B2"
         id="stop28" />
      <stop
         offset="0.7076"
         style="stop-color:#7F93AF"
         id="stop30" />
    </radialGradient>
    <radialGradient
       id="SVGID_00000129203836781694822460000006390568805972796814_"
       cx="240.82471"
       cy="100.774"
       r="64.569"
       gradientUnits="userSpaceOnUse"
       gradientTransform="matrix(0.79558203,0,0,0.64223415,30.808117,4.29586)">
      <stop
         offset="0.0494"
         style="stop-color:#FFFDF2"
         id="stop35" />
      <stop
         offset="0.1721"
         style="stop-color:#FFE8B2"
         id="stop37" />
      <stop
         offset="0.2947"
         style="stop-color:#FFD87B"
         id="stop39" />
      <stop
         offset="0.3966"
         style="stop-color:#FFCD4D"
         id="stop41" />
      <stop
         offset="0.4736"
         style="stop-color:#FFC72B"
         id="stop43" />
      <stop
         offset="0.5169"
         style="stop-color:#FFC41A"
         id="stop45" />
      <stop
         offset="0.5828"
         style="stop-color:#F9BC1E"
         id="stop47" />
      <stop
         offset="0.6858"
         style="stop-color:#EDA823"
         id="stop49" />
      <stop
         offset="0.813"
         style="stop-color:#DD8B26"
         id="stop51" />
      <stop
         offset="0.9583"
         style="stop-color:#CB6727"
         id="stop53" />
      <stop
         offset="1"
         style="stop-color:#C65B28"
         id="stop55" />
    </radialGradient>
    <radialGradient
       id="SVGID_00000039815194632815794430000001900237238569290167_"
       cx="89.306702"
       cy="247.90379"
       r="65.211304"
       gradientUnits="userSpaceOnUse"
       gradientTransform="matrix(0.79558203,0,0,0.64223415,30.808117,4.29586)">
      <stop
         offset="8.043184e-03"
         style="stop-color:#FDEDF4"
         id="stop60" />
      <stop
         offset="0.089"
         style="stop-color:#F4D8E9"
         id="stop62" />
      <stop
         offset="0.335"
         style="stop-color:#E2A2C8"
         id="stop64" />
      <stop
         offset="0.5579"
         style="stop-color:#D67AB1"
         id="stop66" />
      <stop
         offset="0.75"
         style="stop-color:#CF5AA2"
         id="stop68" />
      <stop
         offset="0.9038"
         style="stop-color:#CB4398"
         id="stop70" />
      <stop
         offset="1"
         style="stop-color:#C93A95"
         id="stop72" />
    </radialGradient>
    <radialGradient
       id="SVGID_00000093877177837186022340000015456694378651029406_"
       cx="392.98721"
       cy="247.0648"
       r="66.365997"
       gradientUnits="userSpaceOnUse"
       gradientTransform="matrix(0.79558203,0,0,0.64223415,30.808117,4.29586)">
      <stop
         offset="0"
         style="stop-color:#FDEDF4"
         id="stop77" />
      <stop
         offset="0.0675"
         style="stop-color:#DAE2F3"
         id="stop79" />
      <stop
         offset="0.1883"
         style="stop-color:#A4D4F1"
         id="stop81" />
      <stop
         offset="0.2935"
         style="stop-color:#79CAF0"
         id="stop83" />
      <stop
         offset="0.3779"
         style="stop-color:#58C4F0"
         id="stop85" />
      <stop
         offset="0.4309"
         style="stop-color:#4AC2EF"
         id="stop87" />
      <stop
         offset="0.5315"
         style="stop-color:#43B6E8"
         id="stop89" />
      <stop
         offset="0.7303"
         style="stop-color:#3199D5"
         id="stop91" />
      <stop
         offset="1"
         style="stop-color:#1771B9"
         id="stop93" />
    </radialGradient>
    <radialGradient
       id="SVGID_00000018926571816506027210000005164006588569812887_"
       cx="241.1647"
       cy="388.97379"
       r="65.211304"
       gradientUnits="userSpaceOnUse"
       gradientTransform="matrix(0.79558203,0,0,0.64223415,30.808117,4.29586)">
      <stop
         offset="8.043184e-03"
         style="stop-color:#FDEDF4"
         id="stop98" />
      <stop
         offset="0.052"
         style="stop-color:#E2E3DE"
         id="stop100" />
      <stop
         offset="0.1502"
         style="stop-color:#B2D3B8"
         id="stop102" />
      <stop
         offset="0.2417"
         style="stop-color:#8BC79C"
         id="stop104" />
      <stop
         offset="0.3235"
         style="stop-color:#6BBF89"
         id="stop106" />
      <stop
         offset="0.3927"
         style="stop-color:#54BB7E"
         id="stop108" />
      <stop
         offset="0.4411"
         style="stop-color:#4BBA7A"
         id="stop110" />
      <stop
         offset="0.595"
         style="stop-color:#48B57A"
         id="stop112" />
      <stop
         offset="0.7469"
         style="stop-color:#3CAC7B"
         id="stop114" />
      <stop
         offset="0.8974"
         style="stop-color:#249D7D"
         id="stop116" />
      <stop
         offset="1"
         style="stop-color:#00927F"
         id="stop118" />
    </radialGradient>
  </defs>
  <sodipodi:namedview
     pagecolor="#ffffff"
     bordercolor="#666666"
     borderopacity="1"
     objecttolerance="10"
     gridtolerance="10"
     guidetolerance="10"
     inkscape:pageopacity="0"
     inkscape:pageshadow="2"
     inkscape:window-width="1366"
     inkscape:window-height="745"
     id="namedview351"
     showgrid="false"
     inkscape:zoom="0.33756641"
     inkscape:cx="598.50042"
     inkscape:cy="-197.84114"
     inkscape:window-x="-8"
     inkscape:window-y="-8"
     inkscape:window-maximized="1"
     inkscape:current-layer="svg349"
     inkscape:document-rotation="0" />
  <path
     d="m 532.00888,108.42771 c 33.44627,0 60.36081,12.18318 80.72771,36.54312 9.05372,11.77858 13.58059,23.95533 13.58059,36.54312 V 240.227 c 0,2.13222 -0.3421,4.27728 -1.14564,6.30674 -3.56421,9.02981 -10.7324,13.54472 -21.48867,13.54472 v 0 c -2.77658,0 -5.56112,-0.30185 -8.1945,-1.02115 -10.63693,-2.91575 -15.95142,-8.05362 -15.95142,-15.42005 l -0.4853,-2.73591 c -0.18299,-1.01473 -0.2705,-2.04231 -0.2705,-3.06988 v -54.48715 c 0,-16.42193 -11.16202,-28.06563 -33.48605,-34.92469 -2.29127,-0.70646 -4.72575,-1.07896 -7.17615,-1.22025 l -5.51338,-0.32111 c -0.90696,-0.0514 -1.82188,-0.0835 -2.72885,-0.0642 -17.43916,0.37892 -30.81289,8.09215 -40.12915,23.12685 -2.51404,3.75707 -3.77106,9.23533 -3.77106,16.4412 v 53.18983 c 0,2.14506 -0.35802,4.29655 -1.1536,6.33885 -3.68354,9.44727 -10.58919,14.16769 -20.72491,14.16769 h -3.01526 c -12.38721,0 -19.8259,-5.94067 -22.32403,-17.81558 -0.23072,-1.10464 -0.31027,-2.23497 -0.31027,-3.35246 v -52.52191 c 0,-33.06864 19.49176,-57.19095 58.47528,-72.36694 1.2411,-0.48168 2.56177,-0.89913 3.88244,-1.22667 11.75074,-2.90932 22.149,-4.36719 31.20272,-4.36719 z"
     id="path4"
     style="stroke-width:0.714808" />
  <path
     d="m 684.80041,51.98817 c 7.93195,0.95693 13.88291,5.36266 17.86082,13.2236 0.91492,1.80468 1.3684,3.75065 1.3684,5.69662 v 2.19644 c 0,6.78841 -5.20311,12.04831 -15.60932,15.76685 -2.38675,0.85417 -4.9883,1.28447 -7.59781,1.28447 h -0.93879 c -12.93616,0 -20.63739,-5.99847 -23.11165,-18.00825 -0.1989,-0.97619 -0.29437,-1.9845 -0.20686,-2.97354 0.6126,-6.64713 5.39405,-11.76573 14.34435,-15.35582 1.43205,-0.57159 2.97548,-0.93124 4.55073,-1.16245 l 3.64376,-0.53305 c 1.87758,-0.27616 3.81084,-0.35965 5.69637,-0.13487 z m -1.2252,56.61936 c 9.93682,1.00189 16.55607,6.19756 19.84978,15.59987 0.43757,1.23951 0.59668,2.53683 0.59668,3.82129 v 114.99845 c 0,6.71777 -5.02012,11.93271 -15.06036,15.65125 -1.50365,0.55874 -3.12664,0.8927 -4.76554,1.07895 l -1.4957,0.1734 c -0.87514,0.10276 -1.76619,0.15414 -2.64928,0.15414 v 0 c -1.62299,0 -3.24598,-0.14129 -4.80532,-0.50094 -12.00533,-2.80014 -18.00402,-8.11142 -18.00402,-15.94025 l -0.56486,-3.19833 c -0.1273,-0.70646 -0.19094,-1.42576 -0.19094,-2.13864 V 129.74988 c 0,-9.69131 5.48951,-16.70451 15.19561,-20.30744 0.8115,-0.30185 1.30476,-0.35965 3.08686,-0.68077 l 2.55382,-0.25689 c 2.81636,-0.19267 4.17681,-0.10276 6.25327,0.10275 z"
     id="path6"
     style="stroke-width:0.714808" />
  <path
     d="m 980.55802,51.98817 c 7.93195,0.95693 13.88291,5.36266 17.86082,13.2236 0.91492,1.80468 1.3684,3.75065 1.3684,5.69662 v 2.19644 c 0,6.78841 -5.20311,12.04831 -15.60932,15.76685 -2.38675,0.85417 -4.9883,1.28447 -7.59781,1.28447 h -0.93878 c -12.93617,0 -20.60558,-4.04608 -23.07984,-16.04943 -0.1989,-0.9762 -0.33414,-3.94332 -0.23867,-4.93236 0.61259,-6.64713 5.39404,-11.76573 14.34434,-15.35582 1.43205,-0.57159 2.97548,-0.93124 4.55073,-1.16245 l 3.64376,-0.53305 c 1.86962,-0.27616 3.80289,-0.35965 5.69637,-0.13487 z m -1.23315,56.61936 c 9.93682,1.00189 16.55606,6.19756 19.84977,15.59987 0.43757,1.23951 0.59669,2.53683 0.59669,3.82129 v 114.99845 c 0,6.71777 -5.02012,11.93271 -15.06037,15.65125 -1.50365,0.55874 -3.12664,0.8927 -4.76554,1.07895 l -1.49569,0.1734 c -0.87514,0.10276 -1.76619,0.15414 -2.64929,0.15414 v 0 c -1.62299,0 -3.24597,-0.14129 -4.80531,-0.50094 -12.00534,-2.80014 -18.00403,-8.11142 -18.00403,-15.94025 l -0.56486,-3.19833 c -0.12729,-0.70646 -0.19094,-1.42576 -0.19094,-2.13864 V 129.74988 c 0,-9.69131 5.04399,-16.23568 15.12402,-19.6331 0.96265,-0.32754 1.981,-0.55232 2.99934,-0.73857 l 2.72089,-0.48809 c 2.06056,-0.3725 4.17681,-0.4881 6.24532,-0.28259 z"
     id="path8"
     style="stroke-width:0.714808" />
  <path
     d="m 1123.5082,108.42771 c 43.2319,1.15602 69.2395,14.39247 87.1242,40.06256 5.4497,6.79484 7.1841,23.17823 7.1841,33.63381 v 60.90306 c 0,6.31316 -4.4394,11.30332 -13.318,14.97048 -2.355,0.97619 -4.9406,1.5799 -7.5581,1.88175 v 0 c -1.1695,0.13486 -2.3469,0.20551 -3.5324,0.20551 h -1.9969 c -9.8334,0 -16.5481,-5.03512 -20.1441,-15.11177 -0.6524,-1.83037 -0.9786,-3.7378 -0.9786,-5.64524 v -54.1596 c 0,-17.81558 -10.9949,-29.96665 -32.9848,-36.45964 -1.6309,-0.48167 -3.3494,-0.78994 -5.0679,-0.97619 l -6.7306,-0.72573 c -1.3286,-0.14129 -2.6811,-0.22478 -4.0177,-0.18624 -19.8259,0.57158 -33.86,9.63993 -42.0863,27.19219 -0.8115,1.72119 -1.2411,3.55155 -1.4002,5.38834 l -0.3739,4.27728 c -0.1034,1.1496 -0.1353,1.81753 -0.1194,2.4726 0.4137,15.35582 10.3267,26.35087 29.7548,33.00442 2.3152,0.79637 4.7894,1.25235 7.2796,1.56705 16.2219,2.03588 22.4354,4.21306 27.2169,7.42423 5.577,3.91762 5.8952,7.45633 5.8952,13.03735 v 1.22024 c -2.1799,7.44992 -5.577,11.61802 -12.6895,14.76497 -4.5348,2.01019 -9.6982,2.89647 -14.8615,2.89647 h -0.366 c -25.9439,0 -48.1088,-8.67016 -66.4868,-26.02332 -11.0188,-10.39778 -18.9587,-22.82501 -21.966,-36.29908 -0.8831,-3.96901 -1.3286,-7.76461 -1.3286,-11.38039 v -3.65431 c 0,-26.81328 16.4845,-48.63639 49.4693,-65.46293 1.2172,-0.62296 2.5379,-1.14317 3.8427,-1.61843 14.0499,-5.10576 27.6385,-7.5334 40.2405,-7.19944 z"
     id="path10"
     style="stroke-width:0.714808" />
  <path
     d="m 1341.5534,108.42771 c 36.8434,0 66.8209,12.40154 86.8139,41.22501 6.0384,9.84545 7.4944,22.01578 7.4944,32.47136 v 60.90306 c 0,6.31316 -4.4394,11.30332 -13.3181,14.97048 -2.3549,0.97619 -4.9405,1.5799 -7.558,1.88175 v 0 c -1.1695,0.13486 -2.347,0.20551 -3.5324,0.20551 h -1.9969 c -9.8334,0 -16.5481,-5.03512 -20.1441,-15.11177 -0.6524,-1.83037 -0.9786,-3.7378 -0.9786,-5.64524 v -54.1596 c 0,-17.81558 -10.995,-29.96665 -32.9848,-36.45964 -1.631,-0.48167 -3.3494,-0.78994 -5.0679,-0.97619 l -6.7306,-0.72573 c -1.3286,-0.14129 -2.6811,-0.22478 -4.0257,-0.18624 -19.8259,0.57158 -33.8599,9.63993 -42.0863,27.19861 -0.8035,1.72119 -1.2411,3.55156 -1.4002,5.38835 l -0.3819,4.27728 c -0.1034,1.15602 -0.1352,1.81752 -0.1193,2.47902 0.3501,13.13369 7.6615,23.08189 21.9342,29.84462 5.951,2.82583 12.6736,4.3993 19.5156,5.15072 12.8646,1.41291 18.0597,3.5644 22.9526,6.57648 4.853,3.57724 5.76,7.87379 5.76,13.46122 l -0.4058,2.49829 c -0.3659,1.32301 -0.9785,2.69096 -1.798,4.04608 -4.678,7.72608 -14.7739,12.34374 -25.4268,12.34374 h -0.2864 c -25.9439,0 -48.1088,-8.67016 -66.4868,-26.01691 -11.0188,-10.40419 -18.9667,-22.83142 -21.966,-36.29907 -0.8831,-3.96901 -1.3286,-7.76461 -1.3286,-11.38039 v -3.65431 c 0,-20.87261 9.9925,-38.7203 29.9775,-53.54306 13.2624,-9.83903 29.6036,-16.80085 47.3053,-19.49181 5.5611,-0.84775 10.987,-1.27162 16.2697,-1.27162 z"
     id="path12"
     style="stroke-width:0.714808" />
  <path
     d="m 760.30111,51.85972 c 7.34323,0 13.20667,2.58821 17.58237,7.77104 3.47669,4.11672 5.05194,9.09403 5.05194,14.07135 v 109.71286 c 0,15.36866 7.74102,26.46004 23.21509,33.28057 6.55559,2.89005 13.86699,4.48922 21.29773,5.08649 v 0 h 4.52686 c 14.51937,0 25.95188,-4.89382 34.28958,-14.67505 5.64068,-6.62143 8.71163,-14.45669 9.47539,-22.47177 v 0 -1.82394 c 0,-16.13935 -11.56777,-27.71241 -34.70329,-34.71276 -10.99495,-3.64789 -17.288,-4.60482 -24.36072,-6.94255 -6.54764,-2.16433 -11.05064,-7.3022 -11.09837,-13.01809 V 128.003 c 2.88796,-12.99239 10.93925,-19.4918 24.14591,-19.4918 29.92184,0 55.07815,10.35281 75.44505,31.05844 12.069,13.09516 18.10747,27.10228 18.10747,42.02138 v 6.08838 c 0,27.10228 -17.85289,49.02816 -53.56657,65.77762 -12.82478,4.46995 -24.89376,6.69851 -36.21489,6.69851 h -8.29792 c -23.6447,0 -45.01403,-7.91875 -64.13187,-23.74982 C 743.95989,222.6041 735.41534,203.9215 735.41534,180.37078 V 75.99488 c 0,-2.29919 0.15116,-4.60482 0.66033,-6.86548 2.56973,-11.51526 10.64489,-17.26968 24.22544,-17.26968 z"
     id="path14"
     style="stroke-width:0.714808" />
  <ellipse
     cx="680.58386"
     cy="71.011139"
     id="circle16"
     rx="26.079178"
     ry="21.052435"
     style="stroke-width:0.714808" />
  <ellipse
     cx="976.01514"
     cy="71.011139"
     id="circle18"
     rx="26.079178"
     ry="21.052435"
     style="stroke-width:0.714808" />
  <polygon
     class="st0"
     points="232.71,156.66 248.33,156.66 248.33,217.87 270.98,217.87 270.98,241.22 333.17,241.22 333.17,256.86 270.98,256.86 270.98,280.18 247.66,280.18 247.66,335.83 232.02,335.83 232.02,280.18 208.7,280.18 208.7,256.86 143.07,256.86 143.07,241.22 208.7,241.22 208.7,217.87 232.71,217.87 "
     id="polygon33"
     style="fill:url(#SVGID_1_)"
     transform="matrix(0.79558203,0,0,0.64223415,30.808117,4.29586)" />
  <ellipse
     style="fill:url(#SVGID_00000129203836781694822460000006390568805972796814_);stroke-width:0.714808"
     cx="222.40018"
     cy="68.358719"
     id="circle58"
     rx="52.842556"
     ry="42.657192" />
  <ellipse
     style="fill:url(#SVGID_00000039815194632815794430000001900237238569290167_);stroke-width:0.714808"
     cx="102.77646"
     cy="162.44601"
     id="circle75"
     rx="52.842556"
     ry="42.657192" />
  <ellipse
     style="fill:url(#SVGID_00000093877177837186022340000015456694378651029406_);stroke-width:0.714808"
     cx="342.44553"
     cy="162.44601"
     id="circle96"
     rx="52.842556"
     ry="42.657192" />
  <ellipse
     style="fill:url(#SVGID_00000018926571816506027210000005164006588569812887_);stroke-width:0.714808"
     cx="223.02869"
     cy="253.78456"
     id="circle121"
     rx="52.842556"
     ry="42.657192" />
</svg>
